<?xml version="1.0" encoding="UTF-8"?>
<svg width="260px" height="60px" viewBox="0 0 260 60" version="1.1" xmlns="http://www.w3.org/2000/svg" xmlns:xlink="http://www.w3.org/1999/xlink">
    <!-- Generator: Sketch 51.1 (57501) - http://www.bohemiancoding.com/sketch -->
    <title>Group 10</title>
    <desc>Created with Sketch.</desc>
    <defs></defs>
    <g id="Social" stroke="none" stroke-width="1" fill="none" fill-rule="evenodd">
        <g id="Group-10">
            <g id="Group-2" transform="translate(65.959611, 14.657691)" fill="#FF3B81">
                <path d="M16.0259622,9.3516071 C15.4818681,8.59917518 14.7708468,8.0012695 13.8928769,7.55787212 C13.014907,7.11447473 12.1678642,6.89277937 11.3517232,6.89277937 C10.9312869,6.89277937 10.5046741,6.93308762 10.0718721,7.01370532 C9.63906998,7.09432303 9.24955397,7.24883798 8.90331231,7.47725481 C8.55707066,7.70567165 8.26647934,8.00126547 8.03152965,8.36404514 C7.79657995,8.72682482 7.67910687,9.19036967 7.67910687,9.75469361 C7.67910687,10.2383998 7.77184878,10.6414823 7.95733538,10.9639531 C8.14282198,11.286424 8.41486491,11.5685817 8.77347234,11.8104348 C9.13207977,12.0522879 9.55869255,12.2739833 10.0533235,12.4755276 C10.5479544,12.6770718 11.1044059,12.8853311 11.7226945,13.1003117 C12.6130302,13.4227825 13.5404493,13.7788387 14.5049796,14.1684909 C15.46951,14.5581432 16.3474667,15.0754324 17.1388762,15.720374 C17.9302857,16.3653156 18.5856619,17.1647626 19.1050243,18.1187388 C19.6243868,19.0727149 19.8840642,20.2618083 19.8840642,21.6860544 C19.8840642,23.3252811 19.6058384,24.7427878 19.0493786,25.9386171 C18.4929188,27.1344464 17.7448008,28.1219985 16.805002,28.901303 C15.8652032,29.6806075 14.7893971,30.258359 13.5775513,30.634575 C12.3657055,31.0107909 11.1167811,31.1988961 9.83074068,31.1988961 C7.95114313,31.1988961 6.13340171,30.8428399 4.37746189,30.1307168 C2.62152207,29.4185938 1.1623827,28.4041695 0,27.0874137 L4.15487908,22.4922274 C4.79789929,23.3521496 5.64494206,24.07098 6.6960328,24.6487403 C7.74712354,25.2265005 8.79201571,25.5153763 9.83074068,25.5153763 C10.3006401,25.5153763 10.7581668,25.4616319 11.2033347,25.3541417 C11.6485025,25.2466514 12.0380185,25.0719823 12.3718944,24.8301292 C12.7057703,24.5882761 12.9716304,24.2658101 13.1694828,23.8627216 C13.3673352,23.459633 13.4662599,22.9759341 13.4662599,22.4116101 C13.4662599,21.8741587 13.342604,21.4173319 13.0952885,21.041116 C12.8479731,20.6649 12.4955538,20.3222799 12.0380202,20.0132454 C11.5804866,19.7042108 11.0116695,19.4220531 10.331552,19.1667637 C9.65143446,18.9114743 8.87858522,18.6360346 8.01298108,18.3404363 C7.17210849,18.0448381 6.3497969,17.6954999 5.54602163,17.2924114 C4.74224636,16.8893229 4.02504226,16.3720337 3.39438782,15.7405283 C2.76373338,15.109023 2.25674427,14.3431662 1.8734053,13.4429352 C1.49006632,12.5427042 1.29839971,11.4476634 1.29839971,10.1577801 C1.29839971,8.57229858 1.59517382,7.21525422 2.18873094,6.08660634 C2.78228807,4.95795846 3.5613201,4.03086876 4.52585043,3.30530941 C5.49038075,2.57975005 6.57855248,2.04902479 7.79039827,1.71311768 C9.00224406,1.37721057 10.2264373,1.20925954 11.4630146,1.20925954 C12.9469074,1.20925954 14.4616919,1.50485336 16.0074136,2.09604987 C17.5531353,2.68724637 18.9071671,3.56059175 20.0695498,4.7161122 L16.0259622,9.3516071 Z M42.1117944,20.3558689 C42.1117944,21.7532425 41.913945,23.0968507 41.5182402,24.386734 C41.1225355,25.6766173 40.5475356,26.8119663 39.7932234,27.7928151 C39.0389113,28.7736638 38.117675,29.5596747 37.0294869,30.1508712 C35.9412989,30.7420677 34.7047401,31.0376615 33.3197735,31.0376615 C32.1821223,31.0376615 31.1063162,30.789094 30.0923227,30.2919514 C29.0783293,29.7948089 28.2869317,29.1162867 27.7181061,28.2563645 L27.6439119,28.2563645 L27.6439119,40.1474167 L21.5599818,40.1474167 L21.5599818,10.399632 L27.3471348,10.399632 L27.3471348,12.8584598 L27.4584262,12.8584598 C28.0272518,12.0522827 28.8124666,11.3468884 29.8140942,10.7422556 C30.8157219,10.1376228 31.9966355,9.83531091 33.3568706,9.83531091 C34.6923741,9.83531091 35.9042017,10.1174687 36.9923898,10.6817926 C38.0805778,11.2461165 39.0018141,12.0119732 39.7561263,12.9793857 C40.5104385,13.9467982 41.0916211,15.0687111 41.4996916,16.3451581 C41.9077622,17.6216051 42.1117944,18.9584953 42.1117944,20.3558689 Z M36.21335,20.3558689 C36.21335,19.7109273 36.120608,19.0794314 35.9351214,18.4613623 C35.7496348,17.8432932 35.4775919,17.2991319 35.1189845,16.8288619 C34.7603771,16.358592 34.3090331,15.9756636 33.7649391,15.6800653 C33.220845,15.3844671 32.5902001,15.2366702 31.8729852,15.2366702 C31.1805019,15.2366702 30.5622225,15.3844671 30.0181285,15.6800653 C29.4740344,15.9756636 29.0103249,16.36531 28.6269859,16.8490162 C28.2436469,17.3327225 27.9468728,17.8836019 27.7366547,18.5016709 C27.5264365,19.11974 27.421329,19.7512359 27.421329,20.3961775 C27.421329,21.0411192 27.5264365,21.6726151 27.7366547,22.2906842 C27.9468728,22.9087532 28.2436469,23.4596326 28.6269859,23.9433389 C29.0103249,24.4270451 29.4740344,24.8166915 30.0181285,25.1122897 C30.5622225,25.407888 31.1805019,25.5556849 31.8729852,25.5556849 C32.5902001,25.5556849 33.220845,25.407888 33.7649391,25.1122897 C34.3090331,24.8166915 34.7603771,24.4270451 35.1189845,23.9433389 C35.4775919,23.4596326 35.7496348,22.9020352 35.9351214,22.2705298 C36.120608,21.6390245 36.21335,21.0008105 36.21335,20.3558689 Z M54.6571724,21.726363 L53.8781326,21.726363 C53.2103808,21.726363 52.5364563,21.7599532 51.8563388,21.8271347 C51.1762212,21.8943161 50.5703074,22.0219589 50.0385792,22.2100669 C49.5068509,22.3981748 49.0678725,22.6736145 48.7216309,23.0363942 C48.3753892,23.3991739 48.202271,23.8761548 48.202271,24.4673513 C48.202271,24.8435673 48.2826473,25.1660333 48.4434024,25.434759 C48.6041574,25.7034846 48.8081896,25.918462 49.0555051,26.0796974 C49.3028206,26.2409328 49.5872291,26.3551395 49.9087392,26.4223209 C50.2302493,26.4895023 50.539389,26.5230925 50.8361676,26.5230925 C52.0727449,26.5230925 53.0187124,26.1536003 53.6740984,25.4146046 C54.3294843,24.675609 54.6571724,23.6746208 54.6571724,22.4116101 L54.6571724,21.726363 Z M43.4909349,13.1406203 C44.579123,12.0119724 45.8465957,11.1654992 47.2933912,10.6011753 C48.7401867,10.0368513 50.2178744,9.75469361 51.7264988,9.75469361 C53.2845862,9.75469361 54.6015213,9.96295289 55.6773436,10.3794777 C56.7531659,10.7960025 57.6249399,11.4409345 58.2926916,12.314293 C58.9604434,13.1876514 59.4488841,14.2894102 59.7580284,15.6196024 C60.0671728,16.9497945 60.2217426,18.5285342 60.2217426,20.3558689 L60.2217426,30.4733404 L54.6571724,30.4733404 L54.6571724,28.3369819 L54.545881,28.3369819 C54.0759816,29.1700315 53.3649603,29.8149634 52.4127958,30.2717971 C51.4606312,30.7286308 50.4281046,30.9570442 49.315185,30.9570442 C48.5732386,30.9570442 47.8065722,30.8495555 47.0151627,30.634575 C46.2237532,30.4195944 45.5003663,30.0702563 44.8449803,29.58655 C44.1895943,29.1028438 43.6516912,28.4579118 43.231255,27.6517348 C42.8108187,26.8455577 42.6006037,25.8512876 42.6006037,24.6688946 C42.6006037,23.2177759 42.9653885,22.0488367 43.6949691,21.1620419 C44.4245498,20.2752472 45.3643344,19.5900069 46.5143514,19.1063007 C47.6643683,18.6225945 48.9442066,18.3001285 50.3539048,18.1388931 C51.763603,17.9776577 53.1361832,17.8970412 54.4716867,17.8970412 L54.4716867,17.574572 C54.4716867,16.5802869 54.1501815,15.8480204 53.5071612,15.3777505 C52.864141,14.9074805 52.0727434,14.6723491 51.1329446,14.6723491 C50.2673405,14.6723491 49.4326633,14.8738903 48.628888,15.2769788 C47.8251128,15.6800674 47.1388226,16.1637663 46.5699971,16.7280903 L43.4909349,13.1406203 Z M74.6961717,30.4733404 L74.6961717,19.5093872 C74.6961717,18.9450633 74.6528921,18.40762 74.5663317,17.8970412 C74.4797713,17.3864624 74.337567,16.9363536 74.1397147,16.5467014 C73.9418623,16.1570491 73.6636366,15.8480192 73.3050291,15.6196024 C72.9464217,15.3911855 72.4950777,15.2769788 71.9509837,15.2769788 C71.4068897,15.2769788 70.9308146,15.3911855 70.522744,15.6196024 C70.1146735,15.8480192 69.7746198,16.1637671 69.5025728,16.5668557 C69.2305258,16.9699442 69.0264936,17.4334891 68.8904701,17.9575041 C68.7544466,18.4815192 68.6864359,19.0256806 68.6864359,19.5900045 L68.6864359,30.4733404 L62.5654087,30.4733404 L62.5654087,10.399632 L68.4638531,10.399632 L68.4638531,13.180929 L68.5380473,13.180929 C68.7606312,12.7509679 69.0512226,12.3277313 69.40983,11.9112065 C69.7684374,11.4946816 70.1888674,11.1386254 70.6711326,10.8430272 C71.1533977,10.5474289 71.6789352,10.3055795 72.2477608,10.1174715 C72.8165864,9.92936349 73.4225002,9.83531091 74.0655204,9.83531091 C75.3020977,9.83531091 76.3531727,10.0771604 77.2187768,10.5608666 C78.084381,11.0445729 78.7830367,11.6693507 79.3147649,12.4352189 C79.8464932,13.2010871 80.2298264,14.0811505 80.4647761,15.0754356 C80.6997258,16.0697206 80.8171989,17.0639907 80.8171989,18.0582758 L80.8171989,30.4733404 L74.6961717,30.4733404 Z M103.082026,30.4733404 L95.5513079,30.4733404 L89.5044749,20.8395727 L89.3931835,20.8395727 L89.3931835,30.4733404 L83.2721563,30.4733404 L83.2721563,0 L89.3931835,0 L89.3931835,18.5419796 L89.5044749,18.5419796 L95.4029194,10.399632 L102.785249,10.399632 L95.6625993,19.4690786 L103.082026,30.4733404 Z M126.571059,26.5230925 C125.408676,27.9742112 123.974268,29.1229963 122.267791,29.9694822 C120.561315,30.8159681 118.595186,31.2392047 116.369347,31.2392047 C114.34136,31.2392047 112.467974,30.8764305 110.749131,30.1508712 C109.030289,29.4253118 107.540235,28.3974515 106.278926,27.0672593 C105.017617,25.7370672 104.02837,24.1448914 103.311156,22.2906842 C102.593941,20.4364769 102.235339,18.3941924 102.235339,16.1637692 C102.235339,13.8796008 102.600124,11.8104441 103.329704,9.95623687 C104.059285,8.10202964 105.06708,6.52328992 106.353121,5.21997034 C107.639161,3.91665077 109.147763,2.9156626 110.878971,2.21697582 C112.610179,1.51828904 114.477383,1.16895089 116.480638,1.16895089 C118.335504,1.16895089 120.159429,1.52500708 121.952466,2.23713015 C123.745503,2.94925321 125.198459,3.99054962 126.311379,5.36105062 L122.008111,10.0368542 C121.414554,9.15005941 120.635522,8.49169135 119.670992,8.06173026 C118.706462,7.63176916 117.717215,7.41679184 116.703221,7.41679184 C115.590302,7.41679184 114.570141,7.6384872 113.642708,8.08188458 C112.715275,8.52528196 111.917694,9.13662373 111.249942,9.91592822 C110.582191,10.6952327 110.062836,11.6156044 109.691863,12.6770708 C109.32089,13.7385373 109.135406,14.9007584 109.135406,16.1637692 C109.135406,17.4536525 109.32089,18.6360277 109.691863,19.7109305 C110.062836,20.7858332 110.576008,21.7062049 111.231394,22.4720731 C111.88678,23.2379413 112.671995,23.835847 113.587062,24.2658081 C114.502129,24.6957692 115.503742,24.9107465 116.59193,24.9107465 C117.853239,24.9107465 118.953776,24.6420248 119.893575,24.1045735 C120.833374,23.5671221 121.587674,22.8684458 122.1565,22.0085236 L126.571059,26.5230925 Z M138.930951,30.4733404 L138.930951,19.5900045 C138.930951,19.0256806 138.893855,18.4882373 138.81966,17.9776585 C138.745465,17.4670797 138.603261,17.0169709 138.393043,16.6273187 C138.182825,16.2376664 137.904599,15.9286365 137.558357,15.7002197 C137.212116,15.4718028 136.766955,15.3575961 136.222861,15.3575961 C135.159404,15.3575961 134.343275,15.7673967 133.77445,16.58701 C133.205624,17.4066233 132.921216,18.4210476 132.921216,19.6303132 L132.921216,30.4733404 L126.837285,30.4733404 L126.837285,0 L132.921216,0 L132.921216,12.9390771 L132.99541,12.9390771 C133.415846,12.1329 134.083588,11.4140696 134.998655,10.7825642 C135.913722,10.1510589 137.01426,9.83531091 138.3003,9.83531091 C139.561609,9.83531091 140.618867,10.0771604 141.472105,10.5608666 C142.325343,11.0445729 143.017816,11.6693507 143.549545,12.4352189 C144.081273,13.2010871 144.464606,14.0811505 144.699556,15.0754356 C144.934506,16.0697206 145.051979,17.0639907 145.051979,18.0582758 L145.051979,30.4733404 L138.930951,30.4733404 Z M158.376396,21.726363 L157.597357,21.726363 C156.929605,21.726363 156.25568,21.7599532 155.575563,21.8271347 C154.895445,21.8943161 154.289531,22.0219589 153.757803,22.2100669 C153.226075,22.3981748 152.787097,22.6736145 152.440855,23.0363942 C152.094613,23.3991739 151.921495,23.8761548 151.921495,24.4673513 C151.921495,24.8435673 152.001871,25.1660333 152.162626,25.434759 C152.323381,25.7034846 152.527414,25.918462 152.774729,26.0796974 C153.022045,26.2409328 153.306453,26.3551395 153.627963,26.4223209 C153.949473,26.4895023 154.258613,26.5230925 154.555392,26.5230925 C155.791969,26.5230925 156.737936,26.1536003 157.393322,25.4146046 C158.048708,24.675609 158.376396,23.6746208 158.376396,22.4116101 L158.376396,21.726363 Z M147.210159,13.1406203 C148.298347,12.0119724 149.56582,11.1654992 151.012615,10.6011753 C152.459411,10.0368513 153.937098,9.75469361 155.445723,9.75469361 C157.00381,9.75469361 158.320745,9.96295289 159.396568,10.3794777 C160.47239,10.7960025 161.344164,11.4409345 162.011916,12.314293 C162.679667,13.1876514 163.168108,14.2894102 163.477252,15.6196024 C163.786397,16.9497945 163.940967,18.5285342 163.940967,20.3558689 L163.940967,30.4733404 L158.376396,30.4733404 L158.376396,28.3369819 L158.265105,28.3369819 C157.795206,29.1700315 157.084184,29.8149634 156.13202,30.2717971 C155.179855,30.7286308 154.147329,30.9570442 153.034409,30.9570442 C152.292463,30.9570442 151.525796,30.8495555 150.734387,30.634575 C149.942977,30.4195944 149.21959,30.0702563 148.564204,29.58655 C147.908818,29.1028438 147.370915,28.4579118 146.950479,27.6517348 C146.530043,26.8455577 146.319828,25.8512876 146.319828,24.6688946 C146.319828,23.2177759 146.684613,22.0488367 147.414193,21.1620419 C148.143774,20.2752472 149.083559,19.5900069 150.233575,19.1063007 C151.383592,18.6225945 152.663431,18.3001285 154.073129,18.1388931 C155.482827,17.9776577 156.855407,17.8970412 158.190911,17.8970412 L158.190911,17.574572 C158.190911,16.5802869 157.869406,15.8480204 157.226385,15.3777505 C156.583365,14.9074805 155.791967,14.6723491 154.852169,14.6723491 C153.986565,14.6723491 153.151887,14.8738903 152.348112,15.2769788 C151.544337,15.6800674 150.858047,16.1637663 150.289221,16.7280903 L147.210159,13.1406203 Z M172.887923,3.99055648 C172.887923,4.50113528 172.795181,4.97811622 172.609694,5.4215136 C172.424208,5.86491098 172.176896,6.24783934 171.867751,6.57031016 C171.558607,6.89278098 171.18764,7.14806655 170.754837,7.33617453 C170.322035,7.52428251 169.870691,7.61833509 169.400792,7.61833509 C168.41153,7.61833509 167.583036,7.2622789 166.915284,6.55015583 C166.247532,5.83803277 165.913661,4.98484151 165.913661,3.99055648 C165.913661,3.50685024 166.00022,3.04330539 166.173341,2.59990801 C166.346462,2.15651063 166.593774,1.77358227 166.915284,1.45111145 C167.236794,1.12864062 167.607762,0.86663701 168.028198,0.665092746 C168.448634,0.463548482 168.906161,0.362777862 169.400792,0.362777862 C169.870691,0.362777862 170.322035,0.456830441 170.754837,0.644938421 C171.18764,0.8330464 171.558607,1.08833197 171.867751,1.41080279 C172.176896,1.73327362 172.424208,2.11620198 172.609694,2.55959936 C172.795181,3.00299674 172.887923,3.47997767 172.887923,3.99055648 Z M166.358827,30.4733404 L166.358827,10.399632 L172.442757,10.399632 L172.442757,30.4733404 L166.358827,30.4733404 Z M187.213963,30.4733404 L187.213963,19.5093872 C187.213963,18.9450633 187.170684,18.40762 187.084123,17.8970412 C186.997563,17.3864624 186.855359,16.9363536 186.657506,16.5467014 C186.459654,16.1570491 186.181428,15.8480192 185.822821,15.6196024 C185.464213,15.3911855 185.012869,15.2769788 184.468775,15.2769788 C183.924681,15.2769788 183.448606,15.3911855 183.040536,15.6196024 C182.632465,15.8480192 182.292411,16.1637671 182.020364,16.5668557 C181.748317,16.9699442 181.544285,17.4334891 181.408262,17.9575041 C181.272238,18.4815192 181.204227,19.0256806 181.204227,19.5900045 L181.204227,30.4733404 L175.0832,30.4733404 L175.0832,10.399632 L180.981645,10.399632 L180.981645,13.180929 L181.055839,13.180929 C181.278423,12.7509679 181.569014,12.3277313 181.927622,11.9112065 C182.286229,11.4946816 182.706659,11.1386254 183.188924,10.8430272 C183.671189,10.5474289 184.196727,10.3055795 184.765552,10.1174715 C185.334378,9.92936349 185.940292,9.83531091 186.583312,9.83531091 C187.819889,9.83531091 188.870964,10.0771604 189.736568,10.5608666 C190.602172,11.0445729 191.300828,11.6693507 191.832556,12.4352189 C192.364285,13.2010871 192.747618,14.0811505 192.982568,15.0754356 C193.217517,16.0697206 193.33499,17.0639907 193.33499,18.0582758 L193.33499,30.4733404 L187.213963,30.4733404 Z" id="SpankChain"></path>
            </g>
            <g id="Group-5">
                <circle id="Oval-2" cx="29.2787385" cy="30.5246423" r="24.9180753"></circle>
                <path d="M9.20605828,46.7367721 L9.20605828,47.1220549 L5.27624919,47.1220549 L5.27624919,39.8495727 L5.15437314,40.2518766 L1.39627547,39.0924222 L3.51931011,32.0850654 L3.25796133,32.476118 L0,30.2586146 L4.07094001,24.1682336 L3.68269777,24.4855762 L1.20958899,21.403747 L7.06796711,16.61649 L6.31935716,16.90657 L4.9110499,13.2043505 L11.9083443,10.4939131 L11.0905627,10.5516118 L10.8164345,6.59572022 L18.1424626,6.07878359 L17.4810499,5.92468492 L18.36503,2.06077941 L25.3632536,3.69111247 L24.9222642,3.43426693 L26.8872045,0 L32.9908699,3.55601108 L32.7532931,3.29896359 L35.6273721,0.594461977 L40.3804806,5.73788554 L40.2792746,5.52826634 L43.8113355,3.78989256 L46.8605237,10.0985043 L46.8327921,9.92197528 L50.7142139,9.30162824 L51.8577846,16.5876407 L51.939121,16.0689298 L55.8205428,16.6893346 L54.6599615,24.0844263 L54.9468548,23.4905629 L58.4789157,25.2290233 L55.2085895,31.9951997 L55.6864591,31.4780756 L58.5605381,34.1825556 L53.4796536,39.6808042 L54.0947517,39.3223513 L56.059692,42.7567192 L49.6728499,46.4777052 L50.3153936,46.3279772 L51.1993738,50.1919115 L44.1422563,51.8360346 L44.6860241,51.8744042 L44.4118531,55.8302236 L37.3477312,55.3317073 L37.7076701,55.4711938 L36.2993628,59.1734277 L29.5372865,56.5540532 L29.9645531,56.9032743 L27.4914386,59.9851034 L21.9100991,55.4243136 L22.1856996,55.8364262 L18.9276668,58.0539296 L14.9380347,52.0851485 L15.0566801,52.4766338 L11.2965626,53.6366652 L9.20605828,46.7367721 Z M9.20605828,42.0246676 L11.6605326,41.2675171 L13.5680656,47.5635938 L15.6903612,46.1191081 L19.3174815,51.5455219 L20.9374922,49.5267903 L25.964343,53.6343573 L26.8634754,51.270732 L32.9211121,53.6171919 L33.0986515,51.0566701 L39.5806959,51.5140761 L38.9974748,48.9646612 L45.3518681,47.4842581 L44.0353324,45.1830917 L49.7072999,41.8785458 L47.7646593,40.0505083 L52.2451691,35.2020907 L49.8549635,34.0256152 L52.7364757,28.0639022 L50.1221302,27.6460197 L51.1496284,21.0995309 L48.649783,21.4989498 L47.6227136,14.9552016 L45.3711659,16.0633042 L42.5103809,10.1444901 L40.6752359,11.8713963 L36.2484739,7.08106684 L34.9818265,9.2949352 L29.3780443,6.03021575 L28.7989687,8.56141226 L22.4948925,7.09276524 L22.6778638,9.73397865 L16.2066834,10.1906058 L17.1635661,12.705964 L11.0703786,15.0661273 L12.7097587,17.1090922 L7.5943098,21.2892152 L9.75335691,22.7586556 L6.0654273,28.2759447 L8.55046352,29.0426156 L6.62411874,35.4007183 L9.20605828,35.4007183 L9.20605828,42.0246676 Z" id="path1_fill" fill="#FF3B81" fill-rule="nonzero"></path>
                <path d="M40.3931179,17.042435 L38.3983605,35.7836151 L34.4438489,36.1421154 L34.5663327,17.136801 L40.3931179,17.042435 Z M39.2907433,37.5576845 L39.028281,44.10671 L33.5864565,43.3894235 L33.848922,37.1047367 L39.2907433,37.5576845 Z" id="path3_fill" fill="#FF3B81" fill-rule="nonzero" transform="translate(36.989787, 30.574572) rotate(6.000000) translate(-36.989787, -30.574572) "></path>
                <text id="S" font-family="AvenirNext-Bold, Avenir Next" font-size="33.2839883" font-weight="bold" fill="#FF3B81">
                    <tspan x="14.2226365" y="40.3016035">S</tspan>
                </text>
            </g>
        </g>
    </g>
</svg>